<?xml version="1.0" encoding="iso-8859-1"?><!DOCTYPE svg PUBLIC "-//W3C//DTD SVG 1.1//EN" "http://www.w3.org/Graphics/SVG/1.1/DTD/svg11.dtd"><svg viewBox="0 0 451.846 451.847" xmlns="http://www.w3.org/2000/svg" xmlns:xlink="http://www.w3.org/1999/xlink"><style>:root>svg{display:none}:root>svg:target{display:block}</style><svg fill="#FF699F" viewBox="0 0 451.846 451.847" id="arrow-point-to-right" xmlns="http://www.w3.org/2000/svg"><path d="M345.441 248.292L151.154 442.573c-12.359 12.365-32.397 12.365-44.75 0-12.354-12.354-12.354-32.391 0-44.744L278.318 225.92 106.409 54.017c-12.354-12.359-12.354-32.394 0-44.748 12.354-12.359 32.391-12.359 44.75 0l194.287 194.284c6.177 6.18 9.262 14.271 9.262 22.366 0 8.099-3.091 16.196-9.267 22.373z"/></svg><svg fill="none" viewBox="0 0 84 84" id="coffee" xmlns="http://www.w3.org/2000/svg"><path d="M82.36 33.879H68.905v-3.473c0-.906-.735-1.64-1.64-1.64H31.828a1.641 1.641 0 000 3.28h33.797v12.58c0 11.049-5.9 21.317-15.425 26.905H18.706C9.181 65.943 3.281 55.675 3.281 44.625V32.046h10.992a1.641 1.641 0 000-3.28H1.641C.735 28.765 0 29.5 0 30.405v14.22a34.412 34.412 0 004.82 17.583 34.634 34.634 0 008.118 9.322H1.641c-.906 0-1.641.735-1.641 1.64 0 5.971 4.858 10.83 10.828 10.83h51.188c5.97 0 10.828-4.859 10.828-10.83 0-.905-.735-1.64-1.64-1.64H55.967a34.645 34.645 0 007.596-8.477h4.632C76.91 63.054 84 55.965 84 47.25V35.52c0-.906-.735-1.641-1.64-1.641zm-20.344 46.84H10.828c-3.598 0-6.617-2.532-7.366-5.906h65.92c-.75 3.374-3.769 5.906-7.366 5.906zm6.89-36.996h5.25v3.527a5.968 5.968 0 01-5.96 5.96h-.373a34.58 34.58 0 001.083-8.585v-.902zM80.72 47.25c0 6.905-5.618 12.523-12.523 12.523h-2.793c.524-1.07.993-2.166 1.402-3.281h1.39c5.097 0 9.243-4.146 9.243-9.242v-5.168c0-.906-.736-1.64-1.641-1.64h-6.89V37.16h11.812v10.09zM33.452 11.123a5.588 5.588 0 01.007 6.988l-.875 1.102a1.64 1.64 0 002.571 2.041l.875-1.102a8.855 8.855 0 00-.01-11.073l-.853-1.071a4.276 4.276 0 01-.005-5.347A1.64 1.64 0 1032.59.62a7.544 7.544 0 00.008 9.433l.853 1.07zM42.547 14.813a5.593 5.593 0 01.006 6.99l-.874 1.102a1.64 1.64 0 002.57 2.04l.875-1.102a8.855 8.855 0 00-.01-11.073l-.853-1.07a4.276 4.276 0 01-.005-5.348 1.64 1.64 0 10-2.57-2.039 7.545 7.545 0 00.007 9.432l.854 1.068zM24.36 14.813a5.59 5.59 0 01.007 6.988l-.875 1.102a1.64 1.64 0 002.571 2.041l.874-1.102a8.855 8.855 0 00-.01-11.073l-.853-1.071a4.276 4.276 0 01-.005-5.347 1.64 1.64 0 10-2.57-2.04 7.544 7.544 0 00.008 9.432l.853 1.07z" fill="#FF699F"/><path d="M23.496 28.765c-.432 0-.855.176-1.16.48-.305.308-.481.73-.481 1.16 0 .432.175.855.48 1.162.306.305.73.48 1.16.48.432 0 .855-.174 1.16-.48a1.65 1.65 0 00.481-1.161c0-.432-.174-.855-.48-1.16a1.653 1.653 0 00-1.16-.48zM53.304 63.354c4.91-4.954 7.727-11.781 7.727-18.729a1.641 1.641 0 00-3.28 0c0 6.09-2.472 12.075-6.778 16.42a1.64 1.64 0 102.331 2.31zM46.751 67.966c.272 0 .55-.069.804-.212l.038-.02a1.64 1.64 0 00-1.611-2.859l-.038.022a1.64 1.64 0 00.807 3.07z" fill="#FF699F"/></svg><svg fill="none" viewBox="0 0 73 77" id="door" xmlns="http://www.w3.org/2000/svg"><path d="M64.49 73.23H50.61v-2.8h11.07V3.73c0-.51-.42-.93-.93-.93H11.49c-.5 0-.93.43-.93.93v66.69h11.19v2.8H7.76V3.73C7.76 1.68 9.43 0 11.49 0h49.27c2.06 0 3.73 1.68 3.73 3.73v69.5z" fill="#FF699F"/><path d="M57.21 73.23h-6.56v-2.8h3.76V10.17c0-.07-.06-.13-.13-.13H17.96c-.07 0-.13.06-.13.13v60.26h3.79v2.8h-6.59V10.17c0-1.62 1.31-2.93 2.93-2.93h36.32a2.94 2.94 0 012.93 2.93v63.06z" fill="#FF699F"/><path d="M49.59 76.24H22.66a2.39 2.39 0 01-2.39-2.39V69.8a2.39 2.39 0 012.39-2.39h26.93a2.39 2.39 0 012.39 2.39v4.05a2.403 2.403 0 01-2.39 2.39zm-26.52-2.8h26.11v-3.23H23.07v3.23zM40.57 25.03h-8.89c-1.18 0-2.15-.96-2.15-2.15v-4.53c0-1.19.96-2.15 2.15-2.15h8.89c1.18 0 2.15.96 2.15 2.15v4.53c0 1.19-.97 2.15-2.15 2.15zm-8.24-2.8h7.58V19h-7.58v3.23zM51.79 52.48h-3.95c-1.15 0-2.08-.93-2.08-2.08V37.92c0-1.15.93-2.08 2.08-2.08h3.95c1.15 0 2.08.93 2.08 2.08V50.4c0 1.14-.93 2.08-2.08 2.08zm-3.23-2.8h2.51V38.64h-2.51v11.04zM10.56 73.23H2c-1.1 0-2-.9-2-2v-6.59c0-1.1.9-2 2-2h6.57c1.1 0 2 .9 2 2v8.59h-.01zm-7.76-2.8h4.96v-4.98H2.8v4.98zM70.08 73.23h-8.39v-8.41c0-1.2.97-2.17 2.17-2.17h6.23c1.19 0 2.17.97 2.17 2.17v6.25a2.188 2.188 0 01-2.18 2.16zm-5.59-2.8h4.96v-4.98h-4.96v4.98zM36.12 32.76a3.44 3.44 0 110-6.88 3.44 3.44 0 010 6.88zm0-4.08c-.35 0-.64.29-.64.64 0 .35.29.64.64.64.35 0 .63-.29.63-.64a.624.624 0 00-.63-.64z" fill="#FF699F"/></svg><svg fill="none" viewBox="0 0 70 63" id="envelope" xmlns="http://www.w3.org/2000/svg"><path d="M63.926 5.477L17.513.065a6.267 6.267 0 00-5.016 1.484 6.674 6.674 0 00-2.465 4.54l-.85 7.157H6.548C2.807 13.246 0 16.65 0 20.49v35.7c-.094 3.663 2.72 6.71 6.287 6.807.086.002.173.003.257.002h46.667c3.74 0 7.14-2.968 7.14-6.809v-1.396a8.366 8.366 0 003.23-1.397 7.304 7.304 0 002.465-4.713l3.91-35.438c.402-3.85-2.289-7.313-6.031-7.77zm-57.38 11.26h46.668c1.998.086 3.611 1.705 3.74 3.755v14.664L38.424 46.24a4.247 4.247 0 01-5.015-.436l-9.35-8.467a7.413 7.413 0 00-9.436-.35L3.403 45.37V20.492c-.001-1.922 1.274-3.754 3.144-3.754zm46.67 42.771H6.545c-1.688.05-3.099-1.314-3.148-3.049a2.926 2.926 0 01.004-.267v-6.459l13.176-9.95a3.998 3.998 0 015.27.261l9.265 8.38a7.864 7.864 0 005.015 1.92 7.578 7.578 0 004.08-1.134l16.746-9.95v16.934c0 1.918-1.87 3.314-3.739 3.314zM66.56 12.81l-3.996 35.438a3.003 3.003 0 01-1.105 2.357c-.34.35-1.105.523-1.105.699V20.49c-.133-3.976-3.267-7.154-7.14-7.244h-40.63l.764-6.808a4.034 4.034 0 011.275-2.27 3.835 3.835 0 012.55-.698L63.5 8.97c1.87.182 3.24 1.886 3.063 3.806a.245.245 0 01-.003.035z" fill="#FF699F"/></svg><svg fill="none" viewBox="0 0 94 97" id="faces" xmlns="http://www.w3.org/2000/svg"><path d="M21.752 35.193a4.178 4.178 0 00-5.843.714 1.419 1.419 0 001.121 2.296c.424 0 .844-.187 1.126-.545a1.315 1.315 0 011.84-.226 1.43 1.43 0 002.001-.244 1.415 1.415 0 00-.245-1.995zM36.633 35.395a1.419 1.419 0 00-.246-1.994 4.178 4.178 0 00-5.843.714 1.42 1.42 0 001.122 2.296c.424 0 .844-.188 1.123-.546a1.315 1.315 0 011.84-.225 1.432 1.432 0 002.004-.245zM22.263 45.85c.422 3.429 3.564 5.874 7.004 5.454 3.44-.42 5.894-3.552 5.472-6.981l-.161-1.32a2.16 2.16 0 00-2.41-1.877l-8.187 1a2.141 2.141 0 00-1.439.814 2.135 2.135 0 00-.442 1.59l.163 1.32zm9.568-1.82l.078.64a3.428 3.428 0 01-2.99 3.813 3.434 3.434 0 01-3.826-2.98l-.078-.639 6.816-.833z" fill="#FF699F"/><path d="M46.286 15.158c.388-3.006-.053-6.064-1.245-8.609-1.399-2.987-3.78-5.217-6.884-6.449-.682-.27-1.46.021-1.794.671-1.534 2.974-5.239 5.093-9.91 5.665l-8.246 1.01a1.421 1.421 0 10.348 2.82l8.243-1.01c5.016-.613 9.164-2.826 11.391-6.013 4.648 2.473 5.775 7.656 5.27 11.553-.524 4.05-2.66 7.097-5.196 7.408l-27.737 3.393c-2.302.282-3.946 2.378-3.662 4.672l.34 2.766-2.161.265-2.165-17.577c-.114-.93.14-1.851.72-2.59a3.51 3.51 0 012.347-1.324l6.92-.847a1.422 1.422 0 001.24-1.584 1.425 1.425 0 00-1.589-1.237l-6.918.847C2.11 9.416-.38 12.59.048 16.068l2.239 18.17a4.909 4.909 0 00-2.032 4.598 4.925 4.925 0 005.49 4.274l2.66-.326.26 2.116a16.614 16.614 0 006.328 11.148 16.694 16.694 0 0010.302 3.55c.69 0 1.383-.041 2.08-.127a16.739 16.739 0 0010.81-5.85c.506-.6.428-1.497-.176-2.003a1.43 1.43 0 00-2.01.177 13.85 13.85 0 01-3.942 3.233 13.866 13.866 0 01-5.033 1.62 13.87 13.87 0 01-10.277-2.841 13.8 13.8 0 01-5.253-9.255l-.436-3.528a1.423 1.423 0 00-1.589-1.237l-4.067.5a2.077 2.077 0 01-2.32-1.802 2.069 2.069 0 011.273-2.167c.001 0 .001-.002.003-.002a2.08 2.08 0 01.53-.138l4.076-.498a1.423 1.423 0 001.241-1.584l-.515-4.178a1.355 1.355 0 011.18-1.506l26.321-3.22 1.97 15.974c.258 2.086.049 4.146-.62 6.125a1.42 1.42 0 001.351 1.874 1.43 1.43 0 001.352-.966 16.518 16.518 0 00.749-7.38l-1.989-16.131c3.218-1.137 5.666-4.77 6.282-9.53zM74.002 74.83a1.315 1.315 0 011.84.226 1.428 1.428 0 002.002.244c.62-.483.73-1.375.245-1.995a4.174 4.174 0 00-5.843-.714 1.419 1.419 0 00-.245 1.995c.485.62 1.38.727 2.001.244zM57.613 70.8a1.419 1.419 0 00-.245 1.996 1.43 1.43 0 002 .244 1.315 1.315 0 011.84.225 1.425 1.425 0 002.002.245c.62-.483.73-1.376.245-1.995a4.178 4.178 0 00-5.842-.714zM70.019 79.529l-8.187-1.002a2.157 2.157 0 00-1.594.44c-1.025.799-.785 1.87-.977 2.757-.687 5.565 5.742 9.1 10.108 5.701 2.623-2.042 2.36-4.86 2.531-5.494a2.16 2.16 0 00-1.881-2.402zm-2.407 5.655a3.43 3.43 0 01-2.533.7 3.423 3.423 0 01-2.99-3.815l.078-.638 6.818.833c-.082.303.043 1.817-1.373 2.92z" fill="#FF699F"/><path d="M92.649 48.782a6.338 6.338 0 00-4.247-2.394L68.814 43.99a2.668 2.668 0 01-1.835-1.087 12.4 12.4 0 00-5.335-4.208c-.728-.3-1.56.045-1.86.77-.301.727.045 1.556.773 1.856a9.533 9.533 0 014.107 3.243 5.528 5.528 0 003.8 2.245l19.589 2.397a3.52 3.52 0 013.067 3.912l-2.165 17.58-2.16-.266.34-2.768c.283-2.294-1.361-4.391-3.663-4.672l-27.735-3.391a9.498 9.498 0 01-6.488-3.742 9.453 9.453 0 01-1.79-7.261c.679-4.165 4.096-7.427 8.314-7.933a1.42 1.42 0 10-.34-2.82c-5.47.655-9.907 4.889-10.789 10.298a12.248 12.248 0 002.325 9.423 12.31 12.31 0 007.015 4.602l-1.978 16.056a16.56 16.56 0 00.435 6.34 1.424 1.424 0 001.743 1.007 1.42 1.42 0 001.011-1.739 13.746 13.746 0 01-.36-5.263l1.97-15.973 26.321 3.22c.741.092 1.272.768 1.18 1.507l-.515 4.177a1.424 1.424 0 001.241 1.584l4.076.499c.172.02.34.066.5.126a2.055 2.055 0 011.307 2.18 2.074 2.074 0 01-2.313 1.803l-4.075-.5a1.422 1.422 0 00-1.589 1.237l-.435 3.527a13.792 13.792 0 01-5.254 9.255 13.872 13.872 0 01-10.28 2.842 13.835 13.835 0 01-5.431-1.85 13.88 13.88 0 01-4.106-3.718 1.428 1.428 0 00-1.992-.305 1.417 1.417 0 00-.306 1.985 16.69 16.69 0 004.944 4.477 16.677 16.677 0 006.546 2.228c.696.085 1.39.127 2.08.127 3.723 0 7.319-1.228 10.301-3.55A16.618 16.618 0 0085.333 82.3l.26-2.116c2.545.301 2.743.364 3.266.364a4.925 4.925 0 004.884-4.314 4.879 4.879 0 00-2.031-4.602l2.237-18.166a6.28 6.28 0 00-1.3-4.684zM72.467 18.239c.787 0 1.425-.637 1.425-1.421v-3.479c0-.784-.638-1.42-1.425-1.42s-1.426.636-1.426 1.42v3.479c0 .784.637 1.42 1.426 1.42zM72.467 28.931c.787 0 1.425-.636 1.425-1.42v-3.479c0-.784-.638-1.42-1.425-1.42s-1.426.636-1.426 1.42v3.479c0 .784.637 1.42 1.426 1.42zM76.086 21.846h3.49c.786 0 1.425-.637 1.425-1.421 0-.785-.639-1.421-1.426-1.421h-3.49c-.786 0-1.425.636-1.425 1.42 0 .785.637 1.422 1.426 1.422zM65.358 21.846h3.49c.787 0 1.425-.637 1.425-1.421 0-.785-.638-1.421-1.425-1.421h-3.49c-.787 0-1.425.636-1.425 1.42 0 .785.638 1.422 1.425 1.422zM21.533 68.069c-.787 0-1.425.636-1.425 1.42v3.479c0 .784.638 1.42 1.425 1.42s1.426-.636 1.426-1.42V69.49c0-.787-.639-1.421-1.426-1.421zM21.533 78.76c-.787 0-1.425.636-1.425 1.42v3.479c0 .784.638 1.42 1.425 1.42s1.426-.636 1.426-1.42V80.18c0-.784-.639-1.42-1.426-1.42zM28.642 75.152h-3.49c-.787 0-1.425.637-1.425 1.421 0 .785.638 1.421 1.425 1.421h3.49c.787 0 1.425-.636 1.425-1.42 0-.785-.638-1.422-1.425-1.422zM17.914 75.152h-3.49c-.786 0-1.425.637-1.425 1.421 0 .785.639 1.421 1.426 1.421h3.49c.786 0 1.425-.636 1.425-1.42 0-.785-.639-1.422-1.426-1.422z" fill="#FF699F"/></svg><svg viewBox="0 0 31.494 31.494" id="left-arrow" xmlns="http://www.w3.org/2000/svg"><path d="M10.273 5.009a1.112 1.112 0 011.587 0 1.12 1.12 0 010 1.571l-8.047 8.047h26.554c.619 0 1.127.492 1.127 1.111s-.508 1.127-1.127 1.127H3.813l8.047 8.032c.429.444.429 1.159 0 1.587a1.112 1.112 0 01-1.587 0L.321 16.532a1.12 1.12 0 010-1.571l9.952-9.952z" fill="#1e201d"/></svg><svg fill="none" viewBox="0 0 92 70" id="people" xmlns="http://www.w3.org/2000/svg"><path d="M88.866 53.72l-5.457-2.712a.093.093 0 01-.052-.082v-2.729a9.889 9.889 0 004.223-6.804 11.28 11.28 0 001.538-5.676c0-3.71-1.795-7.008-4.568-9.083a5.75 5.75 0 00.246-1.66c0-3.504-3.19-6.354-7.108-6.354-3.92 0-7.109 2.85-7.109 6.354 0 .567.083 1.122.247 1.66a11.44 11.44 0 00-3.741 4.848 414.072 414.072 0 01-1.016-11.618c-.44-5.93-2.585-10.94-6.203-14.484C56.276 1.86 51.48 0 46 0S35.724 1.86 32.133 5.377c-3.617 3.545-5.762 8.553-6.202 14.483a486.53 486.53 0 01-.354 4.489H12.87c-4.715 0-8.55 3.815-8.55 8.501v.08a7.05 7.05 0 00.752 3.162l.69 1.372v2.187c0 3.468 1.717 6.58 4.321 8.452v1.935c0 .248-.167.47-.408.538l-5.563 1.58C1.691 52.846 0 55.076 0 57.579V68.66C0 69.4.604 70 1.348 70c.744 0 1.347-.6 1.347-1.34V57.578c0-1.313.888-2.482 2.157-2.843l5.563-1.581c.2-.057.391-.134.573-.227l3.416 3.397V68.66c0 .74.604 1.34 1.347 1.34.744 0 1.348-.6 1.348-1.34V56.324l3.44-3.42c.46.225.917.354 1.252.45l1.365.388a7.06 7.06 0 00-2.991 5.759v9.157c0 .74.603 1.34 1.347 1.34s1.348-.6 1.348-1.34v-9.157a4.392 4.392 0 012.63-4.015l7.706-3.384a14.304 14.304 0 0012.802 7.87c5.475 0 10.393-3.055 12.806-7.869l7.704 3.383a4.392 4.392 0 012.63 4.015v9.157c0 .74.604 1.34 1.348 1.34.744 0 1.348-.6 1.348-1.34v-9.157a7.052 7.052 0 00-1.702-4.585l2.086-1.037 1.565 1.48a5.669 5.669 0 003.905 1.553 5.67 5.67 0 003.904-1.553l1.566-1.48 4.5 2.238a2.94 2.94 0 011.645 2.644v9.897c0 .74.604 1.34 1.347 1.34.744 0 1.348-.6 1.348-1.34v-9.897a5.597 5.597 0 00-3.132-5.04zM73.275 24.974c0-2.026 1.98-3.674 4.413-3.674 2.433 0 4.413 1.648 4.413 3.674 0 .086-.007.17-.014.254a11.412 11.412 0 00-4.4-.877 11.41 11.41 0 00-4.4.877c-.005-.086-.012-.17-.012-.254zm4.415 2.055c4.815 0 8.734 3.897 8.734 8.686 0 .923-.15 1.838-.444 2.71-3.827-3.865-10.558-5.38-10.883-5.451a1.348 1.348 0 00-1.637 1.31c0 .008-.061.938-1.046 1.917a1.335 1.335 0 000 1.895c.526.524 1.38.524 1.906 0 .759-.753 1.205-1.518 1.465-2.163 2.268.67 6.974 2.362 9.087 5.331-.6 3.454-3.608 6.004-7.182 6.004-3.732 0-6.848-2.778-7.249-6.463a1.316 1.316 0 00-.192-.557 8.632 8.632 0 01-1.294-4.531c-.002-4.79 3.917-8.688 8.735-8.688zM34.026 7.287C37.102 4.272 41.242 2.68 46 2.68s8.898 1.592 11.974 4.607c3.147 3.082 5.016 7.499 5.407 12.772 1.06 14.292 2.27 22.263 2.739 25.026.007.043-.008.06-.033.077-1.28.825-4.063 2.364-8.402 3.518l-2.223-.976a1.523 1.523 0 01-.913-1.394v-4.606c4.331-2.794 7.202-7.644 7.202-13.149v-2.512a5.577 5.577 0 00-1.915-4.226c-2.708-2.343-8.837-6.429-19.464-7.485a1.346 1.346 0 00-1.475 1.2A1.343 1.343 0 0040.105 17c9.884.982 15.496 4.708 17.963 6.84.629.543.99 1.347.99 2.204v2.513c0 7.16-5.858 12.983-13.056 12.983-7.199 0-13.056-5.825-13.056-12.983v-1.12c0-.515.287-.987.767-1.262 1.685-.965 3.906-2.752 4.925-5.788a1.339 1.339 0 00-.852-1.695 1.35 1.35 0 00-1.705.847c-.749 2.237-2.433 3.579-3.712 4.311-1.306.749-2.119 2.123-2.119 3.585v1.12c0 5.505 2.872 10.355 7.202 13.15v4.607c0 .604-.36 1.151-.914 1.394l-2.223.976c-4.341-1.155-7.121-2.695-8.402-3.519-.025-.016-.04-.035-.033-.076.471-2.763 1.679-10.734 2.739-25.027.392-5.274 2.26-9.691 5.407-12.773zM8.456 39.653v-2.505c0-.208-.048-.413-.142-.599l-.832-1.654a4.38 4.38 0 01-.465-1.964v-.08c0-3.21 2.627-5.822 5.854-5.822h11.617v5.562c0 .9-.214 1.8-.618 2.604l-.681 1.352a1.333 1.333 0 00-.142.599v2.864a7.181 7.181 0 01-2.216 5.207 7.265 7.265 0 01-5.304 2.044c-3.9-.114-7.07-3.529-7.07-7.608zm6.99 10.29a10.062 10.062 0 003.281-.441v.538c0 .29.03.553.083.795l-3.057 3.04-3.07-3.055c.062-.252.096-.512.096-.78v-.565a9.57 9.57 0 002.667.468zm5.975.097v-1.846a10.063 10.063 0 002.05-1.875c.217.436.548.819.977 1.094 1.08.695 3.12 1.851 6.117 2.916l-3.775 1.658-4.257-1.21c-1.113-.316-1.113-.439-1.113-.737zM46 57.292a11.612 11.612 0 01-10.336-6.273l1.963-.861a4.204 4.204 0 002.519-3.848v-3.216A15.74 15.74 0 0046 44.216a15.74 15.74 0 005.854-1.122v3.216c0 1.664.99 3.174 2.52 3.847l1.962.862C54.357 54.86 50.4 57.292 46 57.292zm15.435-6.963c2.997-1.063 5.035-2.22 6.117-2.916a2.749 2.749 0 001.225-2.775l-.032-.19a9.933 9.933 0 003.274 3.75v2.726a.09.09 0 01-.052.082l-4.223 2.1c-.05-.023-.099-.05-.15-.072l-6.159-2.705zm14.204 3.088l-1.252-1.183c.212-.393.327-.84.327-1.308V49.5c.942.291 1.939.448 2.974.448 1.033 0 2.032-.157 2.974-.448v1.426c0 .468.116.915.327 1.308l-1.253 1.183a2.986 2.986 0 01-4.097 0z" fill="#FF699F"/></svg><svg viewBox="0 0 31.49 31.49" id="right-arrow" xmlns="http://www.w3.org/2000/svg"><path d="M21.205 5.007a1.112 1.112 0 00-1.587 0 1.12 1.12 0 000 1.571l8.047 8.047H1.111A1.106 1.106 0 000 15.737c0 .619.492 1.127 1.111 1.127h26.554l-8.047 8.032c-.429.444-.429 1.159 0 1.587a1.112 1.112 0 001.587 0l9.952-9.952a1.093 1.093 0 000-1.571l-9.952-9.953z" fill="#1e201d"/></svg><svg fill="none" viewBox="0 0 82 69" id="smiles" xmlns="http://www.w3.org/2000/svg"><path d="M53.736 27.516a1.6 1.6 0 01-1.544-1.175 1.59 1.59 0 011.128-1.95l.064-.018a1.6 1.6 0 011.952 1.137 1.59 1.59 0 01-1.142 1.94l-.04.01a1.6 1.6 0 01-.418.056zM64.514 42.788c-.76 0-1.51-.199-2.188-.587a4.342 4.342 0 01-2.046-2.65 1.591 1.591 0 011.132-1.949 1.6 1.6 0 011.96 1.126 1.187 1.187 0 001.458.835 1.17 1.17 0 00.722-.551 1.16 1.16 0 00.118-.899 1.591 1.591 0 011.132-1.949 1.6 1.6 0 011.96 1.126 4.308 4.308 0 01-.44 3.313 4.356 4.356 0 01-2.666 2.034c-.376.101-.76.151-1.142.151zM50.674 46.475c-.76 0-1.512-.2-2.188-.587a4.337 4.337 0 01-2.046-2.65 1.591 1.591 0 011.132-1.95 1.602 1.602 0 011.96 1.126c.082.306.28.56.554.718.276.159.596.2.902.117.308-.081.564-.276.722-.55a1.16 1.16 0 00.118-.9 1.592 1.592 0 011.132-1.948 1.602 1.602 0 011.96 1.126 4.307 4.307 0 01-.44 3.312 4.355 4.355 0 01-2.666 2.034 4.355 4.355 0 01-1.14.152zM60.31 56.898a6.575 6.575 0 01-3.278-.879 6.493 6.493 0 01-3.064-3.97 1.589 1.589 0 011.132-1.95 1.602 1.602 0 011.96 1.126c.234.867.792 1.59 1.574 2.038.782.448 1.69.569 2.562.336 1.798-.479 2.87-2.324 2.388-4.112a1.591 1.591 0 011.132-1.949 1.6 1.6 0 011.96 1.126c.94 3.484-1.146 7.077-4.65 8.008a6.585 6.585 0 01-1.716.226z" fill="#FF699F"/><path d="M81.144 40.358c-2.536-9.41-10.808-16.122-20.582-16.705a1.595 1.595 0 00-1.692 1.493c-.052.88.62 1.63 1.502 1.682 8.396.5 15.504 6.268 17.682 14.353 2.786 10.334-3.406 20.995-13.8 23.764a19.434 19.434 0 01-5.014.657c-6.532 0-12.802-3.275-16.434-8.865a22.349 22.349 0 002.626-10.529c0-3.8-.95-7.383-2.624-10.529a19.552 19.552 0 015.95-5.874c.746-.47.968-1.451.496-2.195a1.607 1.607 0 00-2.208-.493 22.755 22.755 0 00-6.096 5.641c-4.144-5.54-10.776-9.135-18.236-9.135C10.19 23.625 0 33.754 0 46.208s10.19 22.585 22.716 22.585c7.464 0 14.096-3.597 18.24-9.139a22.896 22.896 0 009.574 7.423 22.629 22.629 0 0014.55.939c12.1-3.22 19.306-15.63 16.064-27.658zM22.716 65.612C11.954 65.612 3.2 56.908 3.2 46.21s8.754-19.403 19.516-19.403c10.762 0 19.514 8.703 19.514 19.403 0 10.698-8.754 19.402-19.514 19.402z" fill="#FF699F"/><path d="M18.342 44.426c-.884 0-1.6-.711-1.6-1.59 0-.653-.534-1.183-1.19-1.183-.656 0-1.19.53-1.19 1.183 0 .879-.716 1.59-1.6 1.59-.884 0-1.6-.711-1.6-1.59 0-2.406 1.97-4.365 4.39-4.365s4.39 1.959 4.39 4.365c0 .877-.718 1.59-1.6 1.59zM32.67 44.426c-.884 0-1.6-.711-1.6-1.59 0-.653-.534-1.183-1.19-1.183-.656 0-1.19.53-1.19 1.183 0 .879-.716 1.59-1.6 1.59-.884 0-1.6-.711-1.6-1.59 0-2.406 1.97-4.365 4.39-4.365 2.422 0 4.39 1.959 4.39 4.365 0 .877-.716 1.59-1.6 1.59zM22.716 57.047c-3.626 0-6.576-2.933-6.576-6.54 0-.879.716-1.59 1.6-1.59.884 0 1.6.711 1.6 1.59 0 1.852 1.514 3.359 3.376 3.359 1.862 0 3.376-1.505 3.376-3.359 0-.879.716-1.59 1.6-1.59.884 0 1.6.711 1.6 1.59 0 3.607-2.95 6.54-6.576 6.54zM40.986 10.857c-.884 0-1.6-.714-1.6-1.59V1.67c0-.879.716-1.59 1.6-1.59.884 0 1.6.711 1.6 1.59v7.596c0 .877-.716 1.591-1.6 1.591zM40.986 17.574a1.593 1.593 0 01-1.6-1.59c0-.418.17-.83.468-1.126.298-.294.71-.465 1.132-.465.422 0 .832.17 1.132.465a1.6 1.6 0 01.468 1.125c0 .42-.17.83-.468 1.126-.3.294-.71.465-1.132.465zM32.732 14.816c-.41 0-.818-.155-1.132-.465l-5.304-5.274a1.585 1.585 0 010-2.249 1.606 1.606 0 012.264 0l5.304 5.274c.624.62.624 1.628 0 2.249a1.6 1.6 0 01-1.132.465zM49.338 14.677c-.41 0-.818-.155-1.13-.466a1.585 1.585 0 01-.002-2.25l5.156-5.13a1.608 1.608 0 012.264 0 1.584 1.584 0 010 2.25l-5.156 5.13a1.6 1.6 0 01-1.132.466z" fill="#FF699F"/></svg><svg fill="none" viewBox="0 0 67 63" id="star" xmlns="http://www.w3.org/2000/svg"><path d="M49.35 59.17c-.69 0-1.39-.17-2.03-.5L34.4 51.88a.89.89 0 00-.81 0l-12.92 6.79c-1.48.78-3.23.65-4.58-.33a4.33 4.33 0 01-1.73-4.26l2.47-14.38a.882.882 0 00-.25-.77L6.13 28.75a4.32 4.32 0 01-1.1-4.46 4.322 4.322 0 013.51-2.96l14.44-2.1c.28-.04.53-.22.66-.48L30.1 5.67c.74-1.5 2.23-2.43 3.9-2.43s3.16.93 3.9 2.43l6.46 13.08c.13.26.37.44.65.48l14.44 2.1c1.65.24 3 1.38 3.51 2.96.52 1.59.09 3.3-1.1 4.46L51.42 38.93c-.2.2-.3.49-.25.77l2.47 14.38a4.345 4.345 0 01-4.29 5.09zM34 48.3c.7 0 1.39.17 2.03.5l12.92 6.79c.43.23.79.03.92-.07s.43-.37.35-.85l-2.47-14.38A4.37 4.37 0 0149 36.44l10.45-10.18c.35-.34.27-.74.22-.89a.853.853 0 00-.7-.59l-14.44-2.1a4.383 4.383 0 01-3.28-2.38L34.78 7.21a.856.856 0 00-.78-.49c-.16 0-.56.05-.78.48l-6.46 13.08a4.365 4.365 0 01-3.28 2.38l-14.44 2.1c-.48.07-.65.44-.7.59-.05.15-.13.55.22.89l10.45 10.18c1.03 1 1.49 2.44 1.25 3.85l-2.47 14.38c-.08.48.22.76.35.85.13.1.48.29.92.07l12.92-6.79c.63-.32 1.32-.48 2.02-.48zM51.47 6.03a1.741 1.741 0 01-1.41-2.76L51.91.73a1.741 1.741 0 012.82 2.04l-1.85 2.54c-.34.48-.88.72-1.41.72zM16.53 6.02c-.54 0-1.07-.25-1.41-.72l-1.85-2.54A1.741 1.741 0 0116.09.72l1.85 2.54a1.741 1.741 0 01-1.41 2.76zM2.74 40.22c-.73 0-1.42-.47-1.66-1.2-.3-.91.2-1.9 1.12-2.19l2.99-.97c.91-.3 1.9.2 2.19 1.12.3.91-.2 1.9-1.12 2.19l-2.99.97c-.17.05-.35.08-.53.08z" fill="#FF699F"/><path d="M34 62.92c-.96 0-1.74-.78-1.74-1.74v-3.14c0-.96.78-1.74 1.74-1.74s1.74.78 1.74 1.74v3.14c0 .96-.78 1.74-1.74 1.74zM65.26 40.22c-.18 0-.36-.03-.54-.09l-2.99-.97c-.91-.3-1.42-1.28-1.12-2.19.3-.91 1.28-1.42 2.19-1.12l2.99.97c.91.3 1.42 1.28 1.12 2.19a1.74 1.74 0 01-1.65 1.21z" fill="#FF699F"/></svg><svg fill="none" viewBox="0 0 82 74" id="waist" xmlns="http://www.w3.org/2000/svg"><path d="M55.41 11.26c0-.89-.72-1.61-1.6-1.61-.88 0-1.6.72-1.6 1.61 0 .89.72 1.61 1.6 1.61.88 0 1.6-.72 1.6-1.61z" fill="#FF699F"/><path d="M60.66.5c-.3-.32-.72-.5-1.16-.5h-37c-.44 0-.86.18-1.16.5-.3.32-.46.75-.44 1.19.98 17.93-6.92 28.32-8.77 34.84-3.34 11.75 2.11 26.92 9.75 36.84.3.39.77.62 1.27.62h35.7c.5 0 .96-.23 1.27-.62 7.27-9.44 12.97-25.24 9.74-36.83C68.04 30 60.11 19.71 61.1 1.7c.02-.44-.14-.88-.44-1.2zm3.12 29.82c.19.41.39.81.58 1.2.75 1.56 1.42 2.96 1.96 4.46-9.16 3.46-17.78 10.94-25.32 16.7-7.57-5.78-16.17-13.24-25.32-16.7.54-1.5 1.21-2.9 1.96-4.45.19-.39.38-.79.58-1.2 7 3.32 14.84 5.07 22.78 5.07 7.94-.01 15.78-1.76 22.78-5.08zm-48.97 8.77C23.48 42.43 31.7 49.64 39.4 55.5v15.29H23.94c-8.24-11.08-10.71-23.65-9.13-31.7zm43.25 31.69H42.6V55.5c7.75-5.9 15.92-13.06 24.56-16.4 1.91 10.16-3.06 23.47-9.1 31.68zm4.01-44.37c.13.32.26.65.4.98-6.59 3.14-13.98 4.79-21.47 4.79-7.49 0-14.88-1.65-21.47-4.79.14-.33.27-.65.4-.98 3-7.64 4.43-15.43 4.24-23.19h33.66c-.19 7.75 1.24 15.55 4.24 23.19z" fill="#FF699F"/><path d="M55.98 17.33a1.597 1.597 0 00-1.9-1.23c-.86.19-1.41 1.04-1.23 1.91.48 2.25 1.1 4.54 1.84 6.79.28.84 1.18 1.3 2.02 1.03.84-.28 1.3-1.19 1.02-2.03-.7-2.15-1.29-4.33-1.75-6.47zM80.4 12.87h-9.91l3.67-3.69c.62-.63.62-1.65 0-2.27-.62-.63-1.64-.63-2.26 0l-6.41 6.43c-.62.63-.62 1.65 0 2.27l6.41 6.43c.62.63 1.64.63 2.26 0 .62-.63.62-1.65 0-2.27l-3.67-3.69h9.91a1.605 1.605 0 000-3.21zM1.6 16.09h9.91l-3.67 3.69c-.62.63-.62 1.65 0 2.27.62.63 1.64.63 2.26 0l6.41-6.43c.62-.63.62-1.65 0-2.27L10.1 6.91c-.62-.63-1.64-.63-2.26 0-.62.63-.62 1.65 0 2.27l3.67 3.69H1.6c-.88 0-1.6.72-1.6 1.61 0 .89.72 1.61 1.6 1.61z" fill="#FF699F"/></svg></svg>